<svg id="Capa_1" data-name="Capa 1" xmlns="http://www.w3.org/2000/svg" viewBox="0 0 170.73 32"><defs><style>.cls-1{fill:#1d1d1b;}.cls-2{fill:#29a71a;}.cls-3{fill:#fcfdfc;}</style></defs><path class="cls-1" d="M0,16.52A10.48,10.48,0,0,1,10.74,5.69a9.84,9.84,0,0,1,9.78,6.81l-4.29,1.74a5.43,5.43,0,0,0-5.61-4.32c-3.57,0-6.09,2.64-6.09,6.6s2.52,6.57,6.12,6.57a5.37,5.37,0,0,0,5.58-4.32l4.29,1.74a9.8,9.8,0,0,1-9.81,6.81A10.46,10.46,0,0,1,0,16.52Z"/><path class="cls-1" d="M21.06,19c0-4.74,3.54-8.28,8.55-8.28A8.16,8.16,0,0,1,38.16,19a8.18,8.18,0,0,1-8.55,8.28A8.16,8.16,0,0,1,21.06,19Zm12.66,0a4.1,4.1,0,1,0-8.19,0,4.1,4.1,0,1,0,8.19,0Z"/><path class="cls-1" d="M55,17v10H50.58V17.84a2.94,2.94,0,0,0-3.12-3.15,3,3,0,0,0-3.18,2.88v9.36H39.84V11.12H44v1.47a6.55,6.55,0,0,1,4.77-1.86A5.86,5.86,0,0,1,55,17Z"/><path class="cls-1" d="M58.44,21V14.9h-2.7V11.12h1.35q1.62,0,1.62-1.71V7H63v4.17h3.84V14.9h-4v5.58a2.26,2.26,0,0,0,2.43,2.58H67v3.87H64.38C60.45,26.93,58.44,24.59,58.44,21Z"/><path class="cls-1" d="M84.12,11.12V26.93H80V25.19a6.12,6.12,0,0,1-4.86,2.13c-4.56,0-7.86-3.57-7.86-8.28a7.62,7.62,0,0,1,7.86-8A6.23,6.23,0,0,1,80,13V11.12ZM79.86,19a4,4,0,0,0-4.08-4.38A4.11,4.11,0,0,0,71.7,19a4.08,4.08,0,0,0,4.08,4.35A4,4,0,0,0,79.86,19Z"/><path class="cls-1" d="M85.8,19.07a8.15,8.15,0,0,1,8.34-8.31A7.75,7.75,0,0,1,101.76,16l-4,1.56a3.56,3.56,0,0,0-3.57-2.79,4,4,0,0,0-4,4.32,4,4,0,0,0,4,4.32,3.65,3.65,0,0,0,3.66-2.76l4,1.59a7.83,7.83,0,0,1-7.71,5.13A8.14,8.14,0,0,1,85.8,19.07Z"/><path class="cls-1" d="M104.52,21V14.9h-2.7V11.12h1.35q1.62,0,1.62-1.71V7h4.32v4.17H113V14.9h-4v5.58a2.26,2.26,0,0,0,2.43,2.58h1.68v3.87h-2.61C106.53,26.93,104.52,24.59,104.52,21Z"/><path class="cls-1" d="M113.34,19c0-4.74,3.54-8.28,8.55-8.28A8.16,8.16,0,0,1,130.44,19a8.55,8.55,0,0,1-17.1,0ZM126,19a4.1,4.1,0,1,0-8.19,0A4.1,4.1,0,1,0,126,19Z"/><path class="cls-2" d="M153.48,0H156c0,.08.1.06.16.06a15.26,15.26,0,0,1,6.51,2.05,15.83,15.83,0,0,1,7.91,11.55,5,5,0,0,0,.17,1.09v2.5c-.07,0-.06.1-.06.16A16,16,0,1,1,152.36.17,5.23,5.23,0,0,0,153.48,0Zm11.17,15.82a9.77,9.77,0,0,0-.12-1.46,9.92,9.92,0,1,0-18.76,5.8.81.81,0,0,1,.06.57l-1,4.64c-.1.5.1.69.59.58l4.62-1.09a.61.61,0,0,1,.44,0,9.81,9.81,0,0,0,5.87.8A10,10,0,0,0,164.65,15.82Z"/><path class="cls-3" d="M164.65,15.82a10,10,0,0,1-8.26,9.87,9.81,9.81,0,0,1-5.87-.8.61.61,0,0,0-.44,0L145.46,26c-.49.11-.69-.08-.59-.58l1-4.64a.81.81,0,0,0-.06-.57,9.92,9.92,0,1,1,18.76-5.8A9.77,9.77,0,0,1,164.65,15.82Zm-17.14,7.42c.89-.21,1.72-.39,2.54-.61a1.28,1.28,0,0,1,1,.12,7.77,7.77,0,1,0-3.3-3.47,2.49,2.49,0,0,1,.2,1.83C147.77,21.79,147.67,22.49,147.51,23.24Z"/><path class="cls-2" d="M147.51,23.24c.16-.75.26-1.45.45-2.13a2.49,2.49,0,0,0-.2-1.83,7.73,7.73,0,1,1,3.3,3.47,1.28,1.28,0,0,0-1-.12C149.23,22.85,148.4,23,147.51,23.24Zm9.8-2.49a3.33,3.33,0,0,0,.84-.09,3,3,0,0,0,1.76-1.46.72.72,0,0,0-.43-1.15l-1.14-.32c-1.05-.3-1.06-.46-1.88.43a.66.66,0,0,1-.86.14,9.93,9.93,0,0,1-3.18-2.8.69.69,0,0,1,0-.87c.13-.18.27-.35.4-.52a.65.65,0,0,0,.1-.68c-.27-.64-.55-1.28-.85-1.91a.65.65,0,0,0-1-.29A3,3,0,0,0,149.79,13a3.78,3.78,0,0,0,.48,2.59,11.3,11.3,0,0,0,4.06,4.15A5.74,5.74,0,0,0,157.31,20.75Z"/><path class="cls-3" d="M157.31,20.75a5.74,5.74,0,0,1-3-1,11.3,11.3,0,0,1-4.06-4.15,3.78,3.78,0,0,1-.48-2.59,3,3,0,0,1,1.35-1.81.65.65,0,0,1,1,.29c.3.63.58,1.27.85,1.91a.65.65,0,0,1-.1.68c-.13.17-.27.34-.4.52a.69.69,0,0,0,0,.87,9.93,9.93,0,0,0,3.18,2.8.66.66,0,0,0,.86-.14c.82-.89.83-.73,1.88-.43l1.14.32a.72.72,0,0,1,.43,1.15,3,3,0,0,1-1.76,1.46A3.33,3.33,0,0,1,157.31,20.75Z"/></svg>