<svg id="Capa_1" data-name="Capa 1" xmlns="http://www.w3.org/2000/svg" viewBox="0 0 980.84 93.99"><defs><style>.cls-1{fill:#fff;}</style></defs><path class="cls-1" d="M73.58,32.24c0,18.33-13.26,30.42-33.54,30.42H26.91V92.17H0V1.82H40C60.58,1.82,73.58,13.78,73.58,32.24Zm-27.3,0c0-3.9-2.34-7-7.8-7H26.91v14H38.48C43.94,39.26,46.28,36.14,46.28,32.24Z"/><path class="cls-1" d="M124.67,92.17,104.91,59V92.17H78.26V1.82h40c20.54,0,33.54,12,33.54,28.21,0,12.22-7.67,22.23-20.28,26.26l22.75,35.88Zm-7.15-66.95H104.91v14.3h12.61c5.07,0,8.06-2.6,8.06-7.15S122.59,25.22,117.52,25.22Z"/><path class="cls-1" d="M154.05,47.06C154.05,20.67,175.63,0,202.67,0s48.49,20.67,48.49,47.06c0,26.13-21.45,46.93-48.49,46.93S154.05,73.19,154.05,47.06Zm69.81-.13c0-12.35-7.67-21.58-21.19-21.58s-21.32,9.23-21.32,21.58c0,12.61,8.19,21.71,21.32,21.71S223.86,59.54,223.86,46.93Z"/><path class="cls-1" d="M304.07,92.17,286.65,66.69l-16,25.48H240L272,45,242.45,1.69h30.81l15.6,22.88L302.77,1.69h30.81L303.81,46.54l31.07,45.63Z"/><path class="cls-1" d="M336.57,1.82h26.91V92.17H336.57Z"/><path class="cls-1" d="M451.88,92.17,448.11,43,434.59,89.7H412.36L398.84,42.9l-3.9,49.27H370.11l7-90.35h31.46l14.82,52,14.95-52h31.33l7.15,90.35Z"/><path class="cls-1" d="M535.6,78.78H507l-3.9,13.39H476.58L504.79,1.82h32.89l28.21,90.35H539.5Zm-6.5-21.71-7.8-26.78-7.93,26.78Z"/><path class="cls-1" d="M647.53,92.17,643.76,43,630.24,89.7H608L594.49,42.9l-3.9,49.27H565.76l7-90.35h31.47l14.82,52,15-52h31.33l7.15,90.35Z"/><path class="cls-1" d="M744.12,68.9V92.17H679V1.82h64.49V25.09H705.9V35.23h32.37V58.5H705.9V68.9Z"/><path class="cls-1" d="M829.53,1.82V92.17H807.3l-29-43.81V92.17H751.52V1.82h22.23l29,44.33V1.82Z"/><path class="cls-1" d="M911.17,25.74h-25.1V92.17H859.16V25.74H834.07V1.82h77.1Z"/><path class="cls-1" d="M980.84,68.9V92.17H915.71V1.82h64.48V25.09H942.62V35.23H975V58.5H942.62V68.9Z"/></svg>