<svg id="Capa_1" data-name="Capa 1" xmlns="http://www.w3.org/2000/svg" viewBox="0 0 332.9 19.23"><path d="M8.89,17.28v1.6H0V4H8.77v1.6h-7V10.4H8.08V12H1.72v5.28Z"/><path d="M20.1,12v6.88H18.39V12.32c0-2.09-1.16-3.33-3.05-3.31a3,3,0,0,0-3.14,2.91v7H10.49V7.62H12.1V9.27a4.28,4.28,0,0,1,3.68-1.88C18.51,7.39,20.1,9.2,20.1,12Z"/><path d="M21.66,13.26a5.52,5.52,0,0,1,5.46-5.85A4.88,4.88,0,0,1,32,10.91l-1.53.64A3.29,3.29,0,0,0,27.16,9C25,9,23.4,10.76,23.4,13.26s1.61,4.23,3.78,4.23A3.32,3.32,0,0,0,30.49,15l1.53.66a5,5,0,0,1-4.88,3.48C24,19.11,21.66,16.64,21.66,13.26Z"/><path d="M32.75,13.26a5.54,5.54,0,1,1,11.07,0,5.54,5.54,0,1,1-11.07,0Zm9.36,0c0-2.48-1.54-4.25-3.8-4.25s-3.82,1.77-3.82,4.25,1.56,4.23,3.82,4.23S42.11,15.72,42.11,13.26Z"/><path d="M62.27,11.94v6.94H60.55V12.26c0-1.9-1.07-3.27-2.84-3.25a2.93,2.93,0,0,0-3,2.78v7.09H53V12.26C53,10.33,52,9,50.19,9a2.91,2.91,0,0,0-2.93,2.78v7.09H45.54V7.62h1.62V9.29a4.07,4.07,0,0,1,3.51-1.9,3.59,3.59,0,0,1,3.64,2.28,4,4,0,0,1,3.78-2.28C60.76,7.39,62.27,9.31,62.27,11.94Z"/><path d="M64,4.16a1.36,1.36,0,1,1,2.71,0,1.36,1.36,0,1,1-2.71,0Zm.51,3.46h1.71V18.88H64.5Z"/><path d="M73.37,17.43a3.09,3.09,0,0,0,3.23-2l1.49,1a4.89,4.89,0,0,1-4.78,2.76c-3.28,0-5.5-2.53-5.5-5.88a5.61,5.61,0,0,1,5.37-5.89A5.34,5.34,0,0,1,78.44,13c0,.33,0,.71,0,.92H69.55A3.86,3.86,0,0,0,73.37,17.43Zm3.31-5.09A3.5,3.5,0,0,0,73.24,9a3.72,3.72,0,0,0-3.67,3.39Z"/><path d="M89.67,12v6.88H88V12.32C88,10.23,86.8,9,84.9,9a3,3,0,0,0-3.13,2.91v7H80.05V7.62h1.62V9.27a4.28,4.28,0,0,1,3.68-1.88C88.07,7.39,89.67,9.2,89.67,12Z"/><path d="M102.08,3.26V18.88h-1.6V16.81a4.49,4.49,0,0,1-4,2.3c-3,0-5.23-2.5-5.23-5.87s2.18-5.85,5.19-5.85a4.49,4.49,0,0,1,3.92,2.13V3.26Zm-1.66,10c0-2.5-1.51-4.25-3.74-4.25S93,10.83,93,13.24s1.59,4.27,3.73,4.27S100.42,15.76,100.42,13.24Z"/><path d="M114.62,7.62V18.88H113V16.72a4.37,4.37,0,0,1-4,2.39c-3,0-5.23-2.5-5.23-5.87S106,7.49,109,7.49a4.39,4.39,0,0,1,4,2.31V7.62ZM113,13.24c0-2.5-1.52-4.25-3.74-4.25s-3.74,1.84-3.74,4.25,1.6,4.27,3.74,4.27S113,15.76,113,13.24Z"/><path d="M116,16.38l1.64-.68a2.65,2.65,0,0,0,2.8,1.83c1.34,0,2.21-.59,2.21-1.64,0-2.71-6.12-1.5-6.12-5.36,0-1.95,1.51-3.14,3.85-3.14,1.94,0,3.34.83,3.8,2.32l-1.63.69a2.11,2.11,0,0,0-2.19-1.48c-1.23,0-1.94.58-1.94,1.5,0,2.52,6.17,1.2,6.17,5.32,0,2.14-1.68,3.37-4.21,3.37C118.2,19.11,116.59,18.17,116,16.38Z"/><path d="M135.19,12.79v6.09h-1.71V12.75L128.26,4h1.94l4.17,7.2L138.49,4h1.94Z"/><path d="M149.62,7.62V18.88H148V16.72a4.36,4.36,0,0,1-4,2.39c-3,0-5.23-2.5-5.23-5.87S141,7.49,144,7.49a4.38,4.38,0,0,1,4,2.31V7.62ZM148,13.24c0-2.5-1.51-4.25-3.73-4.25s-3.74,1.84-3.74,4.25,1.59,4.27,3.74,4.27S148,15.76,148,13.24Z"/><path d="M151.32,13.26c0-3.33,2.3-5.85,5.45-5.85a4.89,4.89,0,0,1,4.85,3.5l-1.53.64A3.29,3.29,0,0,0,156.81,9c-2.14,0-3.75,1.73-3.75,4.23s1.61,4.23,3.77,4.23A3.32,3.32,0,0,0,160.15,15l1.53.66a5,5,0,0,1-4.89,3.48C153.64,19.11,151.32,16.64,151.32,13.26Z"/><path d="M172.37,7.62V18.88h-1.64v-1.6a4.26,4.26,0,0,1-3.55,1.83c-2.73,0-4.24-1.88-4.24-4.55V7.62h1.71v6.73a2.85,2.85,0,0,0,3,3.14,2.93,2.93,0,0,0,3-2.8V7.62Z"/><path d="M174.21,4.16a1.36,1.36,0,1,1,2.71,0,1.36,1.36,0,1,1-2.71,0Zm.51,3.46h1.71V18.88h-1.71Z"/><path d="M189.61,13.24c0,3.37-2.23,5.87-5.26,5.87a4.49,4.49,0,0,1-4-2.28v2.05h-1.59V3.26h1.71V9.48a4.54,4.54,0,0,1,3.9-2.09C187.42,7.39,189.61,9.91,189.61,13.24Zm-1.72,0c0-2.41-1.6-4.25-3.72-4.25s-3.76,1.75-3.76,4.25,1.56,4.27,3.76,4.27S187.89,15.7,187.89,13.24Z"/><path d="M201.51,7.62V18.88h-1.6V16.72a4.37,4.37,0,0,1-4,2.39c-3,0-5.23-2.5-5.23-5.87s2.22-5.75,5.23-5.75a4.39,4.39,0,0,1,4,2.31V7.62Zm-1.66,5.62c0-2.5-1.51-4.25-3.74-4.25s-3.73,1.84-3.73,4.25,1.59,4.27,3.73,4.27S199.85,15.76,199.85,13.24Z"/><path d="M219.62.35v3L213.5,18.88h-4.4l6.11-15.25h-8.3V.35Z"/><path d="M229.79,15.59v3.29h-9.16V15.59h3V6.22h-2.94V3h2.94V.32h3.95V15.59Z"/><path d="M230.62,9.56c0-6.09,3.25-9.56,8.3-9.56s8.33,3.47,8.33,9.56-3.31,9.64-8.33,9.64S230.62,15.54,230.62,9.56Zm12.6,0c0-3.79-1.74-5.84-4.3-5.84s-4.27,2.05-4.27,5.84,1.71,5.85,4.27,5.85S243.22,13.38,243.22,9.61Z"/><path d="M266.9,13.33c0,3.36-2.91,5.9-7,5.9-3.66,0-6.44-1.74-7.21-4.33l3.63-1.44a3.39,3.39,0,0,0,3.47,2.37,2.79,2.79,0,0,0,3.05-2.77,2.72,2.72,0,0,0-3-2.7h-3V7.74l4.67-4.32h-7.85V.32h12.31v3.1l-4.49,4.35A5.49,5.49,0,0,1,266.9,13.33Z"/><path d="M268.31,9.56c0-6.09,3.26-9.56,8.31-9.56S285,3.47,285,9.56s-3.31,9.64-8.33,9.64S268.31,15.54,268.31,9.56Zm12.61,0c0-3.79-1.74-5.84-4.3-5.84s-4.27,2.05-4.27,5.84,1.71,5.85,4.27,5.85S280.92,13.38,280.92,9.61Z"/><path d="M286.44,9.56c0-6.09,3.26-9.56,8.31-9.56s8.33,3.47,8.33,9.56-3.31,9.64-8.33,9.64S286.44,15.54,286.44,9.56Zm12.61,0c0-3.79-1.74-5.84-4.3-5.84s-4.28,2.05-4.28,5.84,1.71,5.85,4.28,5.85S299.05,13.38,299.05,9.61Z"/><path d="M318.35,15.59v3.29h-9.16V15.59h3V6.22h-2.94V3h2.94V.32h3.95V15.59Z"/><path d="M332.9,15.59v3.29H319.31V16.26l6.49-6.17c1.52-1.38,2.75-2.93,2.75-4.48A2.25,2.25,0,0,0,326,3.37,3.06,3.06,0,0,0,323,6l-3.74-1.2C320,1.9,322.67,0,326.06,0c4,0,6.52,2.14,6.52,5.42,0,2.46-1.34,4.38-3.69,6.54l-3.81,3.63Z"/></svg>