<svg id="Capa_1" data-name="Capa 1" xmlns="http://www.w3.org/2000/svg" viewBox="0 0 544.69 19.23"><path d="M0,15.57l1.73-.66a3.42,3.42,0,0,0,3.61,2.58c1.9,0,3.1-.9,3.1-2.35,0-4-7.76-2.35-7.76-7.48,0-2.26,1.76-3.84,4.66-3.84,2.5,0,4.15,1.17,4.7,3.1l-1.73.66a2.83,2.83,0,0,0-3-2.18c-1.8,0-2.78.88-2.78,2.09,0,3.76,7.78,2,7.78,7.59,0,2.41-2,4-5.07,4C2.54,19.09.64,17.81,0,15.57Z"/><path d="M21.9,7.62V18.88H20.17v-1.6a4.61,4.61,0,0,1-3.76,1.83,4.2,4.2,0,0,1-4.49-4.55V7.62h1.81v6.73a2.93,2.93,0,0,0,3.15,3.14,3,3,0,0,0,3.2-2.8V7.62Z"/><path d="M23.67,13.26a5.65,5.65,0,0,1,5.76-5.85,5.15,5.15,0,0,1,5.13,3.5l-1.62.64A3.44,3.44,0,0,0,29.48,9a4,4,0,0,0-4,4.23,4,4,0,0,0,4,4.23A3.47,3.47,0,0,0,33,15l1.62.66a5.2,5.2,0,0,1-5.16,3.48A5.64,5.64,0,0,1,23.67,13.26Z"/><path d="M45.92,7.62V18.88H44.19v-1.6a4.58,4.58,0,0,1-3.76,1.83A4.2,4.2,0,0,1,36,14.56V7.62h1.81v6.73a2.93,2.93,0,0,0,3.14,3.14,3,3,0,0,0,3.21-2.8V7.62Z"/><path d="M53.7,7.39V9.07a3.25,3.25,0,0,0-3.48,3v6.79H48.4V7.62h1.71V9.27A4.37,4.37,0,0,1,53.7,7.39Z"/><path d="M53.76,16.38l1.73-.68a2.81,2.81,0,0,0,3,1.83c1.41,0,2.33-.59,2.33-1.64,0-2.71-6.47-1.5-6.47-5.36,0-1.95,1.6-3.14,4.08-3.14,2.05,0,3.52.83,4,2.32l-1.73.69a2.21,2.21,0,0,0-2.3-1.48c-1.31,0-2.06.58-2.06,1.5,0,2.52,6.52,1.2,6.52,5.32,0,2.14-1.77,3.37-4.44,3.37C56.07,19.11,54.36,18.17,53.76,16.38Z"/><path d="M75.21,7.62V18.88H73.52V16.72a4.67,4.67,0,0,1-4.23,2.39,5.53,5.53,0,0,1-5.53-5.87,5.47,5.47,0,0,1,5.53-5.75A4.7,4.7,0,0,1,73.52,9.8V7.62Zm-1.76,5.62A3.92,3.92,0,0,0,69.5,9a4,4,0,0,0-4,4.25,4,4,0,0,0,4,4.27A3.94,3.94,0,0,0,73.45,13.24Z"/><path d="M77.7,3.26h1.82V18.88H77.7Z"/><path d="M91.35,17.43a3.27,3.27,0,0,0,3.42-2l1.58,1a5.22,5.22,0,0,1-5.06,2.76,5.63,5.63,0,0,1-5.81-5.88,5.75,5.75,0,0,1,5.68-5.89A5.47,5.47,0,0,1,96.71,13c0,.33,0,.71,0,.92H87.32A4,4,0,0,0,91.35,17.43Zm3.51-5.09A3.62,3.62,0,0,0,91.22,9a3.85,3.85,0,0,0-3.88,3.39Z"/><path d="M108.59,12v6.88h-1.82V12.32A3,3,0,0,0,103.55,9a3.14,3.14,0,0,0-3.31,2.91v7H98.42V7.62h1.71V9.27A4.59,4.59,0,0,1,104,7.39,4.25,4.25,0,0,1,108.59,12Z"/><path d="M110.23,13.26A5.66,5.66,0,0,1,116,7.41a5.16,5.16,0,0,1,5.13,3.5l-1.63.64A3.44,3.44,0,0,0,116,9a4,4,0,0,0-4,4.23,4,4,0,0,0,4,4.23A3.48,3.48,0,0,0,119.57,15l1.62.66A5.21,5.21,0,0,1,116,19.11,5.65,5.65,0,0,1,110.23,13.26Z"/><path d="M122,13.26a5.86,5.86,0,1,1,11.71,0,5.86,5.86,0,0,1-11.71,0Zm9.89,0a4,4,0,1,0-8,0,4,4,0,1,0,8,0Z"/><path d="M153.17,11.94v6.94h-1.82V12.26a2.94,2.94,0,0,0-3-3.25,3,3,0,0,0-3.12,2.78v7.09h-1.81V12.26a2.93,2.93,0,0,0-3-3.25,3,3,0,0,0-3.1,2.78v7.09h-1.81V7.62h1.71V9.29a4.36,4.36,0,0,1,3.72-1.9,3.81,3.81,0,0,1,3.84,2.28,4.27,4.27,0,0,1,4-2.28A4.2,4.2,0,0,1,153.17,11.94Z"/><path d="M155,4.16a1.43,1.43,0,1,1,2.86,0,1.43,1.43,0,0,1-2.86,0Zm.53,3.46h1.82V18.88h-1.82Z"/><path d="M164.89,17.43a3.28,3.28,0,0,0,3.42-2l1.58,1a5.22,5.22,0,0,1-5.06,2.76A5.63,5.63,0,0,1,159,13.26a5.75,5.75,0,0,1,5.68-5.89A5.47,5.47,0,0,1,170.25,13c0,.33,0,.71,0,.92h-9.36A4,4,0,0,0,164.89,17.43Zm3.5-5.09A3.61,3.61,0,0,0,164.76,9a3.85,3.85,0,0,0-3.88,3.39Z"/><path d="M182.13,12v6.88h-1.82V12.32A3,3,0,0,0,177.09,9a3.13,3.13,0,0,0-3.31,2.91v7H172V7.62h1.71V9.27a4.59,4.59,0,0,1,3.89-1.88A4.25,4.25,0,0,1,182.13,12Z"/><path d="M195.24,3.26V18.88h-1.68V16.81a4.81,4.81,0,0,1-4.23,2.3,5.54,5.54,0,0,1-5.54-5.87,5.53,5.53,0,0,1,5.49-5.85,4.82,4.82,0,0,1,4.15,2.13V3.26Zm-1.75,10a3.92,3.92,0,0,0-4-4.25,4,4,0,0,0-3.95,4.25,4,4,0,0,0,3.95,4.27A3.94,3.94,0,0,0,193.49,13.24Z"/><path d="M208.51,7.62V18.88h-1.69V16.72a4.67,4.67,0,0,1-4.23,2.39,5.53,5.53,0,0,1-5.53-5.87,5.47,5.47,0,0,1,5.53-5.75,4.7,4.7,0,0,1,4.23,2.31V7.62Zm-1.76,5.62A3.92,3.92,0,0,0,202.8,9a4,4,0,0,0-4,4.25,4,4,0,0,0,4,4.27A3.94,3.94,0,0,0,206.75,13.24Z"/><path d="M210,16.38l1.73-.68a2.81,2.81,0,0,0,3,1.83c1.41,0,2.33-.59,2.33-1.64,0-2.71-6.48-1.5-6.48-5.36,0-1.95,1.61-3.14,4.08-3.14,2.06,0,3.53.83,4,2.32l-1.73.69a2.22,2.22,0,0,0-2.31-1.48c-1.3,0-2.05.58-2.05,1.5,0,2.52,6.52,1.2,6.52,5.32,0,2.14-1.78,3.37-4.45,3.37C212.29,19.11,210.58,18.17,210,16.38Z"/><path d="M235.72,14.76c0,2.52-1.73,4.12-4.74,4.12h-5.81V4h5.93c2.67,0,4.11,1.48,4.11,3.61A3.64,3.64,0,0,1,232.9,11,3.75,3.75,0,0,1,235.72,14.76Zm-5-9.23H227v4.89h3.65A2.53,2.53,0,0,0,233.39,8C233.39,6.53,232.47,5.53,230.7,5.53Zm3.2,9.1c0-1.73-1.24-2.71-3.16-2.71H227v5.46h3.8C232.75,17.38,233.9,16.36,233.9,14.63Z"/><path d="M237.1,4.16a1.44,1.44,0,0,1,2.87,0,1.44,1.44,0,0,1-2.87,0Zm.54,3.46h1.81V18.88h-1.81Z"/><path d="M259.62,11.94v6.94H257.8V12.26a2.94,2.94,0,0,0-3-3.25,3,3,0,0,0-3.12,2.78v7.09h-1.81V12.26a2.93,2.93,0,0,0-3-3.25,3,3,0,0,0-3.09,2.78v7.09h-1.82V7.62h1.71V9.29a4.36,4.36,0,0,1,3.72-1.9,3.81,3.81,0,0,1,3.84,2.28,4.27,4.27,0,0,1,4-2.28A4.2,4.2,0,0,1,259.62,11.94Z"/><path d="M261.26,13.26a5.86,5.86,0,1,1,11.71,0,5.86,5.86,0,0,1-11.71,0Zm9.89,0a4,4,0,1,0-8,0,4,4,0,1,0,8,0Z"/><path d="M285.55,3.26V18.88h-1.69V16.81a4.8,4.8,0,0,1-4.23,2.3,5.54,5.54,0,0,1-5.53-5.87,5.52,5.52,0,0,1,5.49-5.85,4.82,4.82,0,0,1,4.14,2.13V3.26Zm-1.76,10a3.92,3.92,0,0,0-4-4.25,4,4,0,0,0-3.95,4.25,4,4,0,0,0,3.95,4.27A3.94,3.94,0,0,0,283.79,13.24Z"/><path d="M298.81,7.62V18.88h-1.69V16.72a4.65,4.65,0,0,1-4.23,2.39,5.54,5.54,0,0,1-5.53-5.87,5.47,5.47,0,0,1,5.53-5.75,4.68,4.68,0,0,1,4.23,2.31V7.62Zm-1.75,5.62A3.92,3.92,0,0,0,293.11,9a4,4,0,0,0-3.95,4.25,4,4,0,0,0,3.95,4.27A3.94,3.94,0,0,0,297.06,13.24Z"/><path d="M301.31,3.26h1.81V18.88h-1.81Z"/><path d="M309,15.57l1.73-.66a3.41,3.41,0,0,0,3.61,2.58c1.9,0,3.09-.9,3.09-2.35,0-4-7.75-2.35-7.75-7.48,0-2.26,1.75-3.84,4.66-3.84,2.5,0,4.14,1.17,4.7,3.1l-1.73.66a2.84,2.84,0,0,0-3-2.18c-1.79,0-2.77.88-2.77,2.09,0,3.76,7.77,2,7.77,7.59,0,2.41-2,4-5.06,4C311.52,19.09,309.62,17.81,309,15.57Z"/><path d="M331.9,7.62V18.88h-1.69V16.72A4.67,4.67,0,0,1,326,19.11a5.53,5.53,0,0,1-5.53-5.87A5.47,5.47,0,0,1,326,7.49a4.7,4.7,0,0,1,4.23,2.31V7.62Zm-1.76,5.62A3.92,3.92,0,0,0,326.19,9a4,4,0,0,0-3.95,4.25,4,4,0,0,0,3.95,4.27A3.94,3.94,0,0,0,330.14,13.24Z"/><path d="M344.56,12v6.88h-1.81V12.32A3,3,0,0,0,339.52,9a3.14,3.14,0,0,0-3.31,2.91v7h-1.82V7.62h1.71V9.27A4.61,4.61,0,0,1,340,7.39,4.25,4.25,0,0,1,344.56,12Z"/><path d="M347.49,15.1V9.18h-2.05V7.62h1.17a.89.89,0,0,0,1-1V4.74h1.75V7.62h3.33V9.18h-3.4v5.73a2.09,2.09,0,0,0,2.25,2.37h1.32v1.6h-1.64A3.43,3.43,0,0,1,347.49,15.1Z"/><path d="M364.49,7.62V18.88H362.8V16.72a4.66,4.66,0,0,1-4.23,2.39A5.54,5.54,0,0,1,353,13.24a5.47,5.47,0,0,1,5.53-5.75A4.69,4.69,0,0,1,362.8,9.8V7.62Zm-1.75,5.62A3.92,3.92,0,0,0,358.79,9a4,4,0,0,0-4,4.25,4,4,0,0,0,4,4.27A3.94,3.94,0,0,0,362.74,13.24Z"/><path d="M370.68,11.47c0-4.51,3.16-7.67,7.37-7.67a6.71,6.71,0,0,1,6.71,4.7L383,9.22a4.92,4.92,0,0,0-5-3.69c-3.16,0-5.49,2.41-5.49,5.94s2.33,5.91,5.53,5.91A4.86,4.86,0,0,0,383,13.69l1.75.72a6.6,6.6,0,0,1-6.64,4.7A7.28,7.28,0,0,1,370.68,11.47Z"/><path d="M391.59,7.39V9.07a3.25,3.25,0,0,0-3.48,3v6.79H386.3V7.62H388V9.27A4.37,4.37,0,0,1,391.59,7.39Z"/><path d="M402.74,7.62V18.88H401v-1.6a4.58,4.58,0,0,1-3.76,1.83,4.2,4.2,0,0,1-4.48-4.55V7.62h1.81v6.73a2.93,2.93,0,0,0,3.14,3.14,3,3,0,0,0,3.21-2.8V7.62Z"/><path d="M413.19,17.38v1.5h-8.95V17.55l6.49-8.43h-6.19V7.62H413V9l-6.47,8.37Z"/><path d="M430.55.35v3l-6.12,15.57H420l6.11-15.25h-8.3V.35Z"/><path d="M440.72,15.59v3.29h-9.16V15.59h3V6.22h-2.93V3h2.93V.32h4V15.59Z"/><path d="M441.55,9.56c0-6.09,3.26-9.56,8.3-9.56s8.33,3.47,8.33,9.56-3.31,9.64-8.33,9.64S441.55,15.54,441.55,9.56Zm12.6,0c0-3.79-1.73-5.84-4.3-5.84s-4.27,2.05-4.27,5.84,1.71,5.85,4.27,5.85S454.15,13.38,454.15,9.61Z"/><path d="M477.83,13.33c0,3.36-2.91,5.9-7,5.9-3.66,0-6.44-1.74-7.21-4.33l3.63-1.44a3.39,3.39,0,0,0,3.47,2.37,2.78,2.78,0,0,0,3.05-2.77,2.72,2.72,0,0,0-3-2.7h-3V7.74l4.67-4.32h-7.85V.32h12.31v3.1l-4.48,4.35A5.49,5.49,0,0,1,477.83,13.33Z"/><path d="M479.25,9.56c0-6.09,3.25-9.56,8.3-9.56s8.33,3.47,8.33,9.56-3.31,9.64-8.33,9.64S479.25,15.54,479.25,9.56Zm12.6,0c0-3.79-1.74-5.84-4.3-5.84s-4.27,2.05-4.27,5.84,1.71,5.85,4.27,5.85S491.85,13.38,491.85,9.61Z"/><path d="M497.37,9.56c0-6.09,3.26-9.56,8.31-9.56S514,3.47,514,9.56s-3.31,9.64-8.33,9.64S497.37,15.54,497.37,9.56Zm12.61,0c0-3.79-1.74-5.84-4.3-5.84s-4.27,2.05-4.27,5.84,1.71,5.85,4.27,5.85S510,13.38,510,9.61Z"/><path d="M529.28,15.59v3.29h-9.16V15.59h3V6.22h-2.94V3h2.94V.32h3.95V15.59Z"/><path d="M544.69,15h-2v3.9h-3.93V15h-9V12.1l9-11.75h3.9V11.88h2Zm-5.93-9.56-4.92,6.46h4.92Z"/></svg>