<svg id="Capa_1" data-name="Capa 1" xmlns="http://www.w3.org/2000/svg" viewBox="0 0 144.91 19.32"><defs><style>.cls-1{fill:#fff;}</style></defs><path class="cls-1" d="M2.16,14.28V9.38H0v-3H1.08c.86,0,1.3-.46,1.3-1.37V3H5.83V6.36H8.91v3H5.71v4.47a1.81,1.81,0,0,0,2,2.06H9V19H6.91C3.77,19,2.16,17.14,2.16,14.28Z"/><path class="cls-1" d="M17.23,16.37a2.9,2.9,0,0,0,2.91-1.56l2.71,1.8c-1,1.44-2.62,2.71-5.71,2.71a6.41,6.41,0,0,1-6.77-6.62A6.55,6.55,0,0,1,16.9,6.07a6.34,6.34,0,0,1,6.5,6.36,9.52,9.52,0,0,1-.07,1.35H13.85A3.29,3.29,0,0,0,17.23,16.37Zm2.84-4.92A3,3,0,0,0,17,8.76a3.11,3.11,0,0,0-3.19,2.69Z"/><path class="cls-1" d="M44.07,6.36V19H40.78V17.62a4.9,4.9,0,0,1-3.89,1.7A6.28,6.28,0,0,1,30.6,12.7a6.09,6.09,0,0,1,6.29-6.41A5,5,0,0,1,40.78,7.9V6.36ZM40.66,12.7a3.23,3.23,0,0,0-3.27-3.51,3.29,3.29,0,0,0-3.26,3.51,3.27,3.27,0,0,0,3.26,3.48A3.21,3.21,0,0,0,40.66,12.7Z"/><path class="cls-1" d="M59.4,6.36,54.74,19H50.62L46,6.36h3.68l3,9.19,3-9.19Z"/><path class="cls-1" d="M60.79,2.26A2.26,2.26,0,0,1,63.12,0a2.23,2.23,0,0,1,2.3,2.26,2.21,2.21,0,0,1-2.3,2.25A2.24,2.24,0,0,1,60.79,2.26Zm.53,4.1h3.55V19H61.32Z"/><path class="cls-1" d="M67.15,16l3-1.16a2.52,2.52,0,0,0,2.67,1.76c1.05,0,1.68-.44,1.68-1.16,0-2.2-6.75-1.15-6.75-5.49,0-2.4,2-3.87,5-3.87,2.52,0,4.35,1,4.88,2.79l-3,1.15a1.9,1.9,0,0,0-1.93-1.3c-1,0-1.48.39-1.48,1,0,2,6.76.81,6.76,5.47,0,2.54-2.08,4.1-5.32,4.1C69.89,19.32,67.87,18.17,67.15,16Z"/><path class="cls-1" d="M93.38,6.36V19H90.1V17.62a4.92,4.92,0,0,1-3.89,1.7,6.28,6.28,0,0,1-6.29-6.62,6.09,6.09,0,0,1,6.29-6.41A5,5,0,0,1,90.1,7.9V6.36ZM90,12.7a3.23,3.23,0,0,0-3.27-3.51,3.29,3.29,0,0,0-3.26,3.51,3.27,3.27,0,0,0,3.26,3.48A3.21,3.21,0,0,0,90,12.7Z"/><path class="cls-1" d="M116.35,11.14V19H112.8V11.81c0-1.42-.74-2.59-2.23-2.59a2.25,2.25,0,0,0-2.35,2.25V19h-3.56V11.81a2.29,2.29,0,0,0-2.25-2.59,2.26,2.26,0,0,0-2.33,2.25V19H96.53V6.36h3.36v1.2a4.8,4.8,0,0,1,3.65-1.51,4.07,4.07,0,0,1,3.84,1.85,4.79,4.79,0,0,1,4.15-1.85C114.7,6.05,116.35,8.33,116.35,11.14Z"/><path class="cls-1" d="M118.77,12.7a6.85,6.85,0,0,1,13.69,0,6.85,6.85,0,0,1-13.69,0Zm10.13,0a3.28,3.28,0,1,0-6.55,0,3.28,3.28,0,1,0,6.55,0Z"/><path class="cls-1" d="M134,16l3-1.16a2.51,2.51,0,0,0,2.66,1.76c1.06,0,1.68-.44,1.68-1.16,0-2.2-6.74-1.15-6.74-5.49,0-2.4,2-3.87,5-3.87,2.52,0,4.34,1,4.87,2.79l-3,1.15a1.88,1.88,0,0,0-1.92-1.3c-1,0-1.49.39-1.49,1,0,2,6.77.81,6.77,5.47,0,2.54-2.09,4.1-5.33,4.1C136.77,19.32,134.76,18.17,134,16Z"/></svg>