<svg id="Layer_1" data-name="Layer 1" xmlns="http://www.w3.org/2000/svg" viewBox="0 0 980.84 93.99"><defs><style>.cls-1{fill:#fff;}</style></defs><path class="cls-1" d="M103.66,62.74c0,18.33-13.26,30.43-33.54,30.43H57v29.51H30.08V32.32h40C90.66,32.32,103.66,44.28,103.66,62.74Zm-27.3,0c0-3.9-2.34-7-7.8-7H57v14H68.56C74,69.76,76.36,66.64,76.36,62.74Z" transform="translate(-30.08 -30.5)"/><path class="cls-1" d="M154.75,122.68,135,89.53v33.15H108.34V32.32h40c20.54,0,33.54,12,33.54,28.21,0,12.22-7.67,22.23-20.28,26.27l22.75,35.88Zm-7.15-67H135V70H147.6c5.07,0,8.06-2.6,8.06-7.15S152.67,55.72,147.6,55.72Z" transform="translate(-30.08 -30.5)"/><path class="cls-1" d="M184.13,77.56c0-26.39,21.58-47.06,48.62-47.06s48.49,20.67,48.49,47.06c0,26.14-21.45,46.94-48.49,46.94S184.13,103.7,184.13,77.56Zm69.81-.13c0-12.35-7.67-21.58-21.19-21.58s-21.32,9.23-21.32,21.58c0,12.62,8.19,21.72,21.32,21.72S253.94,90.05,253.94,77.43Z" transform="translate(-30.08 -30.5)"/><path class="cls-1" d="M334.15,122.68,316.73,97.2l-16,25.48H270.06l32-47.2L272.53,32.19h30.81l15.6,22.88,13.91-22.88h30.81L333.89,77,365,122.68Z" transform="translate(-30.08 -30.5)"/><path class="cls-1" d="M366.65,32.32h26.91v90.36H366.65Z" transform="translate(-30.08 -30.5)"/><path class="cls-1" d="M482,122.68l-3.77-49.15-13.52,46.68H442.44L428.92,73.4,425,122.68H400.19l7-90.36h31.46l14.82,52,14.95-52h31.33l7.15,90.36Z" transform="translate(-30.08 -30.5)"/><path class="cls-1" d="M565.68,109.29h-28.6l-3.9,13.39H506.66l28.21-90.36h32.89L596,122.68H569.58Zm-6.5-21.72-7.8-26.78-7.93,26.78Z" transform="translate(-30.08 -30.5)"/><path class="cls-1" d="M677.61,122.68l-3.77-49.15-13.52,46.68H638.08L624.56,73.4l-3.9,49.28H595.83l7-90.36h31.46l14.83,52,15-52h31.33l7.15,90.36Z" transform="translate(-30.08 -30.5)"/><path class="cls-1" d="M774.19,99.41v23.27H709.06V32.32h64.48V55.59H736V65.73h32.37V89H736v10.4Z" transform="translate(-30.08 -30.5)"/><path class="cls-1" d="M859.6,32.32v90.36H837.37l-29-43.82v43.82H781.6V32.32h22.23l29,44.34V32.32Z" transform="translate(-30.08 -30.5)"/><path class="cls-1" d="M941.24,56.24H916.15v66.44H889.24V56.24H864.15V32.32h77.09Z" transform="translate(-30.08 -30.5)"/><path class="cls-1" d="M1010.92,99.41v23.27H945.79V32.32h64.48V55.59H972.7V65.73h32.37V89H972.7v10.4Z" transform="translate(-30.08 -30.5)"/></svg>