<svg id="Capa_1" data-name="Capa 1" xmlns="http://www.w3.org/2000/svg" viewBox="0 0 250.94 19.23"><path d="M10.55,14.76c0,2.52-1.73,4.12-4.74,4.12H0V4H5.94C8.61,4,10,5.51,10,7.64A3.64,3.64,0,0,1,7.73,11,3.74,3.74,0,0,1,10.55,14.76Zm-5-9.23H1.79v4.89H5.45A2.52,2.52,0,0,0,8.22,8C8.22,6.53,7.31,5.53,5.53,5.53Zm3.21,9.1c0-1.73-1.24-2.71-3.16-2.71H1.79v5.46H5.6C7.58,17.38,8.74,16.36,8.74,14.63Z"/><path d="M11.77,13.26a5.67,5.67,0,0,1,5.85-5.87,5.67,5.67,0,0,1,5.85,5.87,5.66,5.66,0,0,1-5.85,5.85A5.66,5.66,0,0,1,11.77,13.26Zm9.89,0a4,4,0,1,0-8,0,4,4,0,1,0,8.05,0Z"/><path d="M25.29,3.26H27.1V18.88H25.29Z"/><path d="M34.67,17.43a3.27,3.27,0,0,0,3.41-2l1.58,1a5.22,5.22,0,0,1-5.06,2.76,5.63,5.63,0,0,1-5.81-5.88,5.75,5.75,0,0,1,5.68-5.89A5.48,5.48,0,0,1,40,13c0,.33,0,.71,0,.92H30.63A4,4,0,0,0,34.67,17.43Zm3.5-5.09A3.61,3.61,0,0,0,34.54,9a3.86,3.86,0,0,0-3.89,3.39Z"/><path d="M42.29,15.1V9.18h-2V7.62h1.17a.89.89,0,0,0,1-1V4.74h1.75V7.62H47.5V9.18H44.11v5.73a2.09,2.09,0,0,0,2.24,2.37h1.32v1.6H46A3.43,3.43,0,0,1,42.29,15.1Z"/><path d="M53.61,17.43a3.28,3.28,0,0,0,3.42-2l1.58,1a5.22,5.22,0,0,1-5.06,2.76,5.63,5.63,0,0,1-5.81-5.88,5.75,5.75,0,0,1,5.68-5.89A5.47,5.47,0,0,1,59,13c0,.33,0,.71,0,.92H49.57A4,4,0,0,0,53.61,17.43Zm3.5-5.09A3.61,3.61,0,0,0,53.48,9a3.85,3.85,0,0,0-3.88,3.39Z"/><path d="M66,7.39V9.07a3.25,3.25,0,0,0-3.48,3v6.79H60.68V7.62h1.71V9.27A4.37,4.37,0,0,1,66,7.39Z"/><path d="M66.77,4.16a1.43,1.43,0,1,1,2.86,0,1.43,1.43,0,0,1-2.86,0Zm.53,3.46h1.82V18.88H67.3Z"/><path d="M82.36,7.62V18.88H80.67V16.72a4.66,4.66,0,0,1-4.23,2.39,5.54,5.54,0,0,1-5.53-5.87,5.47,5.47,0,0,1,5.53-5.75A4.69,4.69,0,0,1,80.67,9.8V7.62Zm-1.75,5.62a3.92,3.92,0,0,0-4-4.25,4,4,0,0,0-4,4.25,4,4,0,0,0,4,4.27A3.94,3.94,0,0,0,80.61,13.24Z"/><path d="M88.23,15.57,90,14.91a3.42,3.42,0,0,0,3.61,2.58c1.9,0,3.1-.9,3.1-2.35,0-4-7.75-2.35-7.75-7.48,0-2.26,1.75-3.84,4.65-3.84,2.5,0,4.15,1.17,4.7,3.1l-1.73.66a2.83,2.83,0,0,0-3-2.18c-1.8,0-2.78.88-2.78,2.09,0,3.76,7.78,2,7.78,7.59,0,2.41-2,4-5.06,4C90.77,19.09,88.87,17.81,88.23,15.57Z"/><path d="M99.68,13.26a5.66,5.66,0,0,1,5.77-5.85,5.16,5.16,0,0,1,5.13,3.5l-1.63.64A3.44,3.44,0,0,0,105.49,9a4,4,0,0,0-4,4.23,4,4,0,0,0,4,4.23A3.48,3.48,0,0,0,109,15l1.62.66a5.22,5.22,0,0,1-5.17,3.48A5.65,5.65,0,0,1,99.68,13.26Z"/><path d="M120.08,17.38v1.5h-9V17.55l6.49-8.43h-6.19V7.62h8.42V9l-6.48,8.37Z"/><path d="M137.44.35v3l-6.11,15.57h-4.41L133,3.63h-8.31V.35Z"/><path d="M147.62,15.59v3.29h-9.16V15.59h3V6.22h-2.94V3h2.94V.32h4V15.59Z"/><path d="M148.44,9.56c0-6.09,3.26-9.56,8.31-9.56s8.33,3.47,8.33,9.56-3.31,9.64-8.33,9.64S148.44,15.54,148.44,9.56Zm12.61,0c0-3.79-1.74-5.84-4.3-5.84s-4.28,2.05-4.28,5.84,1.71,5.85,4.28,5.85S161.05,13.38,161.05,9.61Z"/><path d="M184.73,13.33c0,3.36-2.91,5.9-7,5.9-3.66,0-6.44-1.74-7.21-4.33l3.63-1.44a3.38,3.38,0,0,0,3.47,2.37,2.78,2.78,0,0,0,3-2.77,2.71,2.71,0,0,0-3-2.7h-3.05V7.74l4.68-4.32h-7.85V.32h12.31v3.1l-4.49,4.35A5.5,5.5,0,0,1,184.73,13.33Z"/><path d="M186.14,9.56c0-6.09,3.26-9.56,8.31-9.56s8.33,3.47,8.33,9.56-3.31,9.64-8.33,9.64S186.14,15.54,186.14,9.56Zm12.6,0c0-3.79-1.73-5.84-4.29-5.84s-4.28,2.05-4.28,5.84,1.71,5.85,4.28,5.85S198.74,13.38,198.74,9.61Z"/><path d="M204.27,9.56c0-6.09,3.26-9.56,8.3-9.56s8.34,3.47,8.34,9.56-3.32,9.64-8.34,9.64S204.27,15.54,204.27,9.56Zm12.6,0c0-3.79-1.73-5.84-4.3-5.84s-4.27,2.05-4.27,5.84,1.71,5.85,4.27,5.85S216.87,13.38,216.87,9.61Z"/><path d="M236.18,15.59v3.29H227V15.59h3V6.22h-2.94V3H230V.32h4V15.59Z"/><path d="M250.94,13.33c0,3.36-2.91,5.9-7,5.9-3.66,0-6.44-1.74-7.21-4.33l3.63-1.44a3.39,3.39,0,0,0,3.47,2.37,2.78,2.78,0,0,0,3-2.77,2.71,2.71,0,0,0-3-2.7h-3V7.74l4.67-4.32h-7.85V.32H250v3.1l-4.49,4.35A5.49,5.49,0,0,1,250.94,13.33Z"/></svg>