<svg id="Capa_1" data-name="Capa 1" xmlns="http://www.w3.org/2000/svg" viewBox="0 0 167.49 22.23"><defs><style>.cls-1{fill:#fff;}</style></defs><path class="cls-1" d="M14,9.53c0,5-3.41,8.35-8.07,8.35H0V1.2H5.9C10.56,1.2,14,4.49,14,9.53Zm-1.63,0c0-4.2-2.76-6.91-6.48-6.91H1.58v13.8H5.86C9.58,16.44,12.34,13.75,12.34,9.55Z"/><path class="cls-1" d="M23,16.75c2.28,0,3.72-.91,4.42-2.76l1.22.75c-.89,2.11-2.74,3.41-5.66,3.41a6.25,6.25,0,0,1-6.34-6.58A6.36,6.36,0,0,1,22.92,5a6,6,0,0,1,6,6.31,5.1,5.1,0,0,1,0,.72H18.29C18.48,14.86,20.38,16.75,23,16.75Zm4.39-5.95C27.26,8.09,25.56,6.29,23,6.29a4.65,4.65,0,0,0-4.68,4.51Z"/><path class="cls-1" d="M29.33,20.83h.26a2.75,2.75,0,0,0,2.79-3V5.23H34V17.81a4.09,4.09,0,0,1-4.25,4.42h-.38ZM31.77,1.39a1.42,1.42,0,0,1,2.84,0,1.42,1.42,0,0,1-2.84,0Z"/><path class="cls-1" d="M50.06,5.23V17.88H48.58V15.15a5.46,5.46,0,0,1-5,3c-3.57,0-6.19-2.81-6.19-6.61a6.16,6.16,0,0,1,6.19-6.48,5.44,5.44,0,0,1,5,2.93V5.23Zm-1.53,6.31c0-3-2-5.16-4.78-5.16A4.87,4.87,0,0,0,39,11.54c0,3,2,5.19,4.77,5.19S48.53,14.59,48.53,11.54Z"/><path class="cls-1" d="M60.81,13.78V6.62H58.46V5.23h1.39a1,1,0,0,0,1.09-1.1V2h1.51V5.23h4V6.62h-4v7c0,1.8.94,2.84,2.69,2.84h1.51v1.41H64.85C62.23,17.88,60.81,16.32,60.81,13.78Z"/><path class="cls-1" d="M79.94,5.23V17.88H78.43V15.82A5.09,5.09,0,0,1,74,18.15,4.77,4.77,0,0,1,69,13V5.23h1.59v7.59a3.61,3.61,0,0,0,3.86,3.89,3.75,3.75,0,0,0,3.94-3.39V5.23Z"/><path class="cls-1" d="M83,15.17l1.37-.53c.43,1.42,1.73,2.26,3.72,2.26s3.15-.82,3.15-2.28c0-3.48-7.61-1.95-7.61-6.29C83.64,6.24,85.39,5,88,5c2.21,0,3.75.89,4.32,2.54L91,8a2.88,2.88,0,0,0-3-1.85c-1.77,0-2.78.77-2.78,2,0,3.29,7.61,1.63,7.61,6.27,0,2.33-1.9,3.65-4.75,3.65C85.46,18.15,83.64,17.07,83,15.17Z"/><path class="cls-1" d="M114.14.34V17.88h-1.48V15.22a5.53,5.53,0,0,1-5,2.93c-3.57,0-6.19-2.81-6.19-6.61S104.06,5,107.64,5a5.52,5.52,0,0,1,4.92,2.76V.34Zm-1.53,11.2c0-3-2-5.16-4.78-5.16a4.87,4.87,0,0,0-4.78,5.16c0,3,2,5.19,4.78,5.19S112.61,14.59,112.61,11.54Z"/><path class="cls-1" d="M130.25,5.23V17.88h-1.49V15.15a5.46,5.46,0,0,1-5,3c-3.58,0-6.2-2.81-6.2-6.61a6.16,6.16,0,0,1,6.2-6.48,5.44,5.44,0,0,1,5,2.93V5.23Zm-1.54,6.31c0-3-1.94-5.16-4.77-5.16a4.87,4.87,0,0,0-4.78,5.16c0,3,2,5.19,4.78,5.19S128.71,14.59,128.71,11.54Z"/><path class="cls-1" d="M135.31,13.78V6.62H133V5.23h1.39c.74,0,1.08-.36,1.08-1.1V2h1.51V5.23h4V6.62h-4v7c0,1.8.93,2.84,2.69,2.84h1.51v1.41h-1.78C136.73,17.88,135.31,16.32,135.31,13.78Z"/><path class="cls-1" d="M142.49,11.57a6.51,6.51,0,1,1,13,0,6.51,6.51,0,1,1-13,0Zm11.4,0a4.91,4.91,0,1,0-9.8,0,4.91,4.91,0,1,0,9.8,0Z"/><path class="cls-1" d="M157.7,15.17l1.37-.53c.43,1.42,1.73,2.26,3.72,2.26s3.14-.82,3.14-2.28c0-3.48-7.6-1.95-7.6-6.29,0-2.09,1.75-3.36,4.34-3.36,2.21,0,3.74.89,4.32,2.54L165.65,8a2.89,2.89,0,0,0-3-1.85c-1.78,0-2.78.77-2.78,2,0,3.29,7.6,1.63,7.6,6.27,0,2.33-1.89,3.65-4.75,3.65C160.15,18.15,158.33,17.07,157.7,15.17Z"/></svg>