<svg id="Capa_1" data-name="Capa 1" xmlns="http://www.w3.org/2000/svg" viewBox="0 0 300.04 19.23"><path d="M9.4,17.28v1.6H0V4H9.27v1.6H1.82V10.4H8.54V12H1.82v5.28Z"/><path d="M21.25,12v6.88H19.44V12.32A3,3,0,0,0,16.21,9a3.14,3.14,0,0,0-3.31,2.91v7H11.08V7.62h1.71V9.27a4.61,4.61,0,0,1,3.89-1.88A4.25,4.25,0,0,1,21.25,12Z"/><path d="M22.9,13.26a5.65,5.65,0,0,1,5.76-5.85,5.15,5.15,0,0,1,5.13,3.5l-1.62.64A3.44,3.44,0,0,0,28.71,9a4,4,0,0,0-4,4.23,4,4,0,0,0,4,4.23A3.47,3.47,0,0,0,32.23,15l1.63.66a5.23,5.23,0,0,1-5.17,3.48A5.64,5.64,0,0,1,22.9,13.26Z"/><path d="M34.62,13.26a5.86,5.86,0,1,1,11.71,0,5.86,5.86,0,0,1-11.71,0Zm9.89,0a4,4,0,1,0-8,0,4,4,0,1,0,8,0Z"/><path d="M65.83,11.94v6.94H64V12.26A2.94,2.94,0,0,0,61,9a3,3,0,0,0-3.12,2.78v7.09H56.07V12.26c0-1.93-1.13-3.27-3-3.25A3,3,0,0,0,50,11.79v7.09H48.14V7.62h1.71V9.29a4.37,4.37,0,0,1,3.72-1.9,3.81,3.81,0,0,1,3.84,2.28,4.27,4.27,0,0,1,4-2.28A4.2,4.2,0,0,1,65.83,11.94Z"/><path d="M67.64,4.16a1.44,1.44,0,0,1,2.87,0,1.44,1.44,0,0,1-2.87,0Zm.54,3.46H70V18.88H68.18Z"/><path d="M77.55,17.43a3.27,3.27,0,0,0,3.42-2l1.58,1a5.22,5.22,0,0,1-5.06,2.76,5.63,5.63,0,0,1-5.81-5.88,5.75,5.75,0,0,1,5.68-5.89A5.48,5.48,0,0,1,82.92,13a7.69,7.69,0,0,1,0,.92H73.52A4,4,0,0,0,77.55,17.43Zm3.51-5.09A3.61,3.61,0,0,0,77.43,9a3.86,3.86,0,0,0-3.89,3.39Z"/><path d="M94.79,12v6.88H93V12.32A3,3,0,0,0,89.75,9a3.14,3.14,0,0,0-3.31,2.91v7H84.62V7.62h1.71V9.27a4.61,4.61,0,0,1,3.89-1.88A4.25,4.25,0,0,1,94.79,12Z"/><path d="M107.91,3.26V18.88h-1.69V16.81a4.8,4.8,0,0,1-4.23,2.3,5.54,5.54,0,0,1-5.53-5.87A5.52,5.52,0,0,1,102,7.39a4.82,4.82,0,0,1,4.14,2.13V3.26Zm-1.76,10a3.92,3.92,0,0,0-4-4.25,4,4,0,0,0-4,4.25,4,4,0,0,0,4,4.27A3.94,3.94,0,0,0,106.15,13.24Z"/><path d="M121.17,7.62V18.88h-1.69V16.72a4.66,4.66,0,0,1-4.23,2.39,5.54,5.54,0,0,1-5.53-5.87,5.47,5.47,0,0,1,5.53-5.75,4.69,4.69,0,0,1,4.23,2.31V7.62Zm-1.75,5.62a3.92,3.92,0,0,0-4-4.25,4,4,0,0,0-4,4.25,4,4,0,0,0,4,4.27A3.94,3.94,0,0,0,119.42,13.24Z"/><path d="M122.64,16.38l1.73-.68a2.82,2.82,0,0,0,3,1.83c1.41,0,2.33-.59,2.33-1.64,0-2.71-6.47-1.5-6.47-5.36,0-1.95,1.6-3.14,4.08-3.14,2.05,0,3.52.83,4,2.32l-1.73.69a2.21,2.21,0,0,0-2.3-1.48c-1.31,0-2.05.58-2.05,1.5,0,2.52,6.51,1.2,6.51,5.32,0,2.14-1.77,3.37-4.44,3.37C125,19.11,123.24,18.17,122.64,16.38Z"/><path d="M136.7,15.57l1.73-.66A3.41,3.41,0,0,0,142,17.49c1.9,0,3.09-.9,3.09-2.35,0-4-7.75-2.35-7.75-7.48,0-2.26,1.75-3.84,4.66-3.84,2.5,0,4.14,1.17,4.7,3.1L145,7.58a2.84,2.84,0,0,0-3-2.18c-1.79,0-2.77.88-2.77,2.09,0,3.76,7.77,2,7.77,7.59,0,2.41-2,4-5.06,4C139.24,19.09,137.34,17.81,136.7,15.57Z"/><path d="M148.14,13.26a5.66,5.66,0,0,1,5.77-5.85,5.16,5.16,0,0,1,5.13,3.5l-1.62.64A3.45,3.45,0,0,0,154,9a4,4,0,0,0-4,4.23,4,4,0,0,0,4,4.23,3.47,3.47,0,0,0,3.5-2.52l1.62.66a5.21,5.21,0,0,1-5.17,3.48A5.65,5.65,0,0,1,148.14,13.26Z"/><path d="M168.54,17.38v1.5h-8.95V17.55l6.5-8.43h-6.2V7.62h8.42V9l-6.48,8.37Z"/><path d="M185.91.35v3l-6.12,15.57h-4.4L181.5,3.63h-8.3V.35Z"/><path d="M196.08,15.59v3.29h-9.16V15.59h3V6.22H187V3h2.94V.32h4V15.59Z"/><path d="M196.91,9.56c0-6.09,3.25-9.56,8.3-9.56s8.33,3.47,8.33,9.56-3.31,9.64-8.33,9.64S196.91,15.54,196.91,9.56Zm12.6,0c0-3.79-1.74-5.84-4.3-5.84s-4.27,2.05-4.27,5.84,1.71,5.85,4.27,5.85S209.51,13.38,209.51,9.61Z"/><path d="M233.19,13.33c0,3.36-2.91,5.9-7,5.9-3.66,0-6.44-1.74-7.21-4.33l3.63-1.44a3.39,3.39,0,0,0,3.47,2.37,2.78,2.78,0,0,0,3-2.77,2.71,2.71,0,0,0-3-2.7h-3V7.74l4.67-4.32h-7.85V.32h12.31v3.1l-4.49,4.35A5.49,5.49,0,0,1,233.19,13.33Z"/><path d="M234.6,9.56c0-6.09,3.26-9.56,8.31-9.56s8.33,3.47,8.33,9.56-3.31,9.64-8.33,9.64S234.6,15.54,234.6,9.56Zm12.61,0c0-3.79-1.74-5.84-4.3-5.84s-4.27,2.05-4.27,5.84,1.7,5.85,4.27,5.85S247.21,13.38,247.21,9.61Z"/><path d="M252.73,9.56C252.73,3.47,256,0,261,0s8.33,3.47,8.33,9.56S266.06,19.2,261,19.2,252.73,15.54,252.73,9.56Zm12.6,0c0-3.79-1.73-5.84-4.29-5.84s-4.28,2.05-4.28,5.84,1.71,5.85,4.28,5.85S265.33,13.38,265.33,9.61Z"/><path d="M284.64,15.59v3.29h-9.16V15.59h3V6.22h-2.94V3h2.94V.32h3.95V15.59Z"/><path d="M300,15h-2v3.9h-3.92V15h-9V12.1l9-11.75H298V11.88h2Zm-5.92-9.56-4.92,6.46h4.92Z"/></svg>