<svg id="Capa_1" data-name="Capa 1" xmlns="http://www.w3.org/2000/svg" viewBox="0 0 337.42 28.11"><defs><style>.cls-1{fill:#fff;}</style></defs><path class="cls-1" d="M29.59,2.7l-6.08,25H20.84L14.79,6,8.71,27.72H6.05L0,2.7H2.34L7.45,24.62,13.5,2.7h2.55l6.09,21.92L27.21,2.7Z"/><path class="cls-1" d="M39.49,26c3.42,0,5.58-1.36,6.62-4.13L48,23c-1.33,3.17-4.1,5.11-8.49,5.11-5.58,0-9.51-4.21-9.51-9.86s4.11-9.9,9.36-9.9c5.44,0,9.07,4.21,9.07,9.47,0,.39,0,.83,0,1.08h-16C32.65,23.18,35.5,26,39.49,26Zm6.59-8.92c-.25-4.07-2.81-6.77-6.7-6.77s-6.58,2.7-7,6.77Z"/><path class="cls-1" d="M70.7,18.21c0,5.69-4,9.9-9.32,9.9a8.28,8.28,0,0,1-7.49-4.39v4H51.66V1.4H54V12.49a8.27,8.27,0,0,1,7.37-4.14C66.78,8.35,70.7,12.6,70.7,18.21Zm-2.37,0c0-4.39-3.1-7.74-7.2-7.74S54,13.68,54,18.21s3,7.78,7.17,7.78S68.33,22.68,68.33,18.21Z"/><path class="cls-1" d="M89.82,26c3.42,0,5.58-1.36,6.62-4.13L98.28,23c-1.33,3.17-4.11,5.11-8.5,5.11-5.58,0-9.5-4.21-9.5-9.86s4.1-9.9,9.36-9.9c5.43,0,9.07,4.21,9.07,9.47a8.55,8.55,0,0,1,0,1.08h-16C83,23.18,85.82,26,89.82,26Zm6.59-8.92c-.26-4.07-2.81-6.77-6.7-6.77s-6.59,2.7-7,6.77Z"/><path class="cls-1" d="M118.83,16.23V27.72h-2.41V16.63c0-3.85-2.19-6.16-5.94-6.12a5.81,5.81,0,0,0-6.12,5.33V27.72H102v-19h2.26v3.16A7.76,7.76,0,0,1,111,8.35C116,8.35,118.83,11.41,118.83,16.23Z"/><path class="cls-1" d="M129.38,18.25A9.47,9.47,0,0,1,139,8.39a8.55,8.55,0,0,1,8.5,5.83l-2.16.86a6.19,6.19,0,0,0-6.26-4.53c-4.18,0-7.27,3.16-7.27,7.7s3.09,7.7,7.3,7.7a6.27,6.27,0,0,0,6.34-4.5l2.16.83a8.57,8.57,0,0,1-8.53,5.83A9.49,9.49,0,0,1,129.38,18.25Z"/><path class="cls-1" d="M149.15,18.25a9.76,9.76,0,1,1,19.51,0,9.76,9.76,0,1,1-19.51,0Zm17.09,0c0-4.54-3-7.74-7.3-7.74s-7.38,3.2-7.38,7.74,3,7.7,7.38,7.7S166.24,22.71,166.24,18.25Z"/><path class="cls-1" d="M188.82,16.23V27.72H186.4V16.63c0-3.85-2.19-6.16-5.94-6.12a5.8,5.8,0,0,0-6.11,5.33V27.72H172v-19h2.27v3.16A7.73,7.73,0,0,1,181,8.35C186,8.35,188.82,11.41,188.82,16.23Z"/><path class="cls-1" d="M191.37,23.65l2.06-.79c.64,2.12,2.59,3.38,5.57,3.38s4.72-1.22,4.72-3.42c0-5.22-11.41-2.91-11.41-9.43,0-3.13,2.63-5,6.52-5,3.31,0,5.61,1.33,6.47,3.82l-2,.79a4.33,4.33,0,0,0-4.46-2.77c-2.67,0-4.18,1.15-4.18,3.06,0,4.93,11.41,2.44,11.41,9.39,0,3.49-2.84,5.47-7.13,5.47C195.05,28.11,192.31,26.49,191.37,23.65Z"/><path class="cls-1" d="M210.09,21.56V10.83h-3.52V8.75h2.08c1.12,0,1.62-.54,1.62-1.66V3.92h2.27V8.75h5.94v2.08h-6V21.35c0,2.69,1.4,4.24,4,4.24h2.26v2.13h-2.66C212.22,27.72,210.09,25.38,210.09,21.56Z"/><path class="cls-1" d="M229.35,8.35v2.23c-3.52,0-6.12,2.63-6.12,5.4V27.72h-2.37v-19h2.27v3.09A7.29,7.29,0,0,1,229.35,8.35Z"/><path class="cls-1" d="M248,8.75v19h-2.27v-3.1a7.62,7.62,0,0,1-6.59,3.49c-4.85,0-7.63-3.17-7.63-7.7V8.75h2.38V20.12c0,3.53,2.23,5.87,5.79,5.83s5.87-2.55,5.91-5.07V8.75Z"/><path class="cls-1" d="M251.28,18.25a9.46,9.46,0,0,1,9.61-9.86,8.54,8.54,0,0,1,8.49,5.83l-2.16.86A6.18,6.18,0,0,0,261,10.55c-4.18,0-7.27,3.16-7.27,7.7S256.78,26,261,26a6.25,6.25,0,0,0,6.33-4.5l2.16.83A8.56,8.56,0,0,1,261,28.11,9.48,9.48,0,0,1,251.28,18.25Z"/><path class="cls-1" d="M271,18.25a9.47,9.47,0,0,1,9.61-9.86,8.56,8.56,0,0,1,8.5,5.83l-2.16.86a6.2,6.2,0,0,0-6.27-4.53c-4.17,0-7.27,3.16-7.27,7.7s3.1,7.7,7.31,7.7a6.25,6.25,0,0,0,6.33-4.5l2.16.83a8.55,8.55,0,0,1-8.53,5.83A9.48,9.48,0,0,1,271,18.25Z"/><path class="cls-1" d="M291.13,3a2.13,2.13,0,0,1,4.25,0,2.13,2.13,0,0,1-4.25,0Zm.93,5.76h2.38v19h-2.38Z"/><path class="cls-1" d="M297.75,18.25a9.76,9.76,0,1,1,19.51,0,9.76,9.76,0,1,1-19.51,0Zm17.1,0c0-4.54-3-7.74-7.31-7.74s-7.38,3.2-7.38,7.74,3,7.7,7.38,7.7S314.85,22.71,314.85,18.25ZM303.58,4.5,310.75,0l1.11,1.8-7.31,4.25Z"/><path class="cls-1" d="M337.42,16.23V27.72H335V16.63c0-3.85-2.2-6.16-5.94-6.12S323,13.1,323,15.84V27.72h-2.37v-19h2.26v3.16a7.76,7.76,0,0,1,6.77-3.56C334.58,8.35,337.42,11.41,337.42,16.23Z"/></svg>